solid vcg
  facet normal 0.000000e+000 -1.000000e+000 0.000000e+000
    outer loop
      vertex  1.618035e+001 -3.273532e+001 -1.175571e+001
      vertex  1.902114e+001 -3.273532e+001 -6.180344e+000
      vertex  0.000000e+000 -3.273532e+001 0.000000e+000
    endloop
  endfacet
  facet normal 0.000000e+000 -1.000000e+000 0.000000e+000
    outer loop
      vertex  1.175571e+001 -3.273532e+001 -1.618035e+001
      vertex  1.618035e+001 -3.273532e+001 -1.175571e+001
      vertex  0.000000e+000 -3.273532e+001 0.000000e+000
    endloop
  endfacet
  facet normal 0.000000e+000 -1.000000e+000 0.000000e+000
    outer loop
      vertex  6.180343e+000 -3.273532e+001 -1.902114e+001
      vertex  1.175571e+001 -3.273532e+001 -1.618035e+001
      vertex  0.000000e+000 -3.273532e+001 0.000000e+000
    endloop
  endfacet
  facet normal 0.000000e+000 -1.000000e+000 0.000000e+000
    outer loop
      vertex  0.000000e+000 -3.273532e+001 -2.000001e+001
      vertex  6.180343e+000 -3.273532e+001 -1.902114e+001
      vertex  0.000000e+000 -3.273532e+001 0.000000e+000
    endloop
  endfacet
  facet normal 0.000000e+000 -1.000000e+000 0.000000e+000
    outer loop
      vertex  -6.180343e+000 -3.273532e+001 -1.902114e+001
      vertex  0.000000e+000 -3.273532e+001 -2.000001e+001
      vertex  0.000000e+000 -3.273532e+001 0.000000e+000
    endloop
  endfacet
  facet normal 0.000000e+000 -1.000000e+000 0.000000e+000
    outer loop
      vertex  -1.175571e+001 -3.273532e+001 -1.618035e+001
      vertex  -6.180343e+000 -3.273532e+001 -1.902114e+001
      vertex  0.000000e+000 -3.273532e+001 0.000000e+000
    endloop
  endfacet
  facet normal 0.000000e+000 -1.000000e+000 0.000000e+000
    outer loop
      vertex  -1.618035e+001 -3.273532e+001 -1.175571e+001
      vertex  -1.175571e+001 -3.273532e+001 -1.618035e+001
      vertex  0.000000e+000 -3.273532e+001 0.000000e+000
    endloop
  endfacet
  facet normal 0.000000e+000 -1.000000e+000 0.000000e+000
    outer loop
      vertex  -1.902114e+001 -3.273532e+001 -6.180341e+000
      vertex  -1.618035e+001 -3.273532e+001 -1.175571e+001
      vertex  0.000000e+000 -3.273532e+001 0.000000e+000
    endloop
  endfacet
  facet normal 0.000000e+000 -1.000000e+000 0.000000e+000
    outer loop
      vertex  -2.000000e+001 -3.273532e+001 0.000000e+000
      vertex  -1.902114e+001 -3.273532e+001 -6.180341e+000
      vertex  0.000000e+000 -3.273532e+001 0.000000e+000
    endloop
  endfacet
  facet normal 0.000000e+000 -1.000000e+000 -0.000000e+000
    outer loop
      vertex  -1.902114e+001 -3.273532e+001 6.180341e+000
      vertex  -2.000000e+001 -3.273532e+001 0.000000e+000
      vertex  0.000000e+000 -3.273532e+001 0.000000e+000
    endloop
  endfacet
  facet normal 0.000000e+000 -1.000000e+000 -0.000000e+000
    outer loop
      vertex  -1.618034e+001 -3.273532e+001 1.175571e+001
      vertex  -1.902114e+001 -3.273532e+001 6.180341e+000
      vertex  0.000000e+000 -3.273532e+001 0.000000e+000
    endloop
  endfacet
  facet normal 0.000000e+000 -1.000000e+000 -0.000000e+000
    outer loop
      vertex  -1.175571e+001 -3.273532e+001 1.618034e+001
      vertex  -1.618034e+001 -3.273532e+001 1.175571e+001
      vertex  0.000000e+000 -3.273532e+001 0.000000e+000
    endloop
  endfacet
  facet normal 0.000000e+000 -1.000000e+000 -0.000000e+000
    outer loop
      vertex  -6.180341e+000 -3.273532e+001 1.902113e+001
      vertex  -1.175571e+001 -3.273532e+001 1.618034e+001
      vertex  0.000000e+000 -3.273532e+001 0.000000e+000
    endloop
  endfacet
  facet normal 0.000000e+000 -1.000000e+000 -0.000000e+000
    outer loop
      vertex  -1.000000e-006 -3.273532e+001 2.000000e+001
      vertex  -6.180341e+000 -3.273532e+001 1.902113e+001
      vertex  0.000000e+000 -3.273532e+001 0.000000e+000
    endloop
  endfacet
  facet normal -0.000000e+000 -1.000000e+000 0.000000e+000
    outer loop
      vertex  6.180339e+000 -3.273532e+001 1.902113e+001
      vertex  -1.000000e-006 -3.273532e+001 2.000000e+001
      vertex  0.000000e+000 -3.273532e+001 0.000000e+000
    endloop
  endfacet
  facet normal -0.000000e+000 -1.000000e+000 0.000000e+000
    outer loop
      vertex  1.175570e+001 -3.273532e+001 1.618034e+001
      vertex  6.180339e+000 -3.273532e+001 1.902113e+001
      vertex  0.000000e+000 -3.273532e+001 0.000000e+000
    endloop
  endfacet
  facet normal -0.000000e+000 -1.000000e+000 0.000000e+000
    outer loop
      vertex  1.618034e+001 -3.273532e+001 1.175571e+001
      vertex  1.175570e+001 -3.273532e+001 1.618034e+001
      vertex  0.000000e+000 -3.273532e+001 0.000000e+000
    endloop
  endfacet
  facet normal -0.000000e+000 -1.000000e+000 0.000000e+000
    outer loop
      vertex  1.902113e+001 -3.273532e+001 6.180340e+000
      vertex  1.618034e+001 -3.273532e+001 1.175571e+001
      vertex  0.000000e+000 -3.273532e+001 0.000000e+000
    endloop
  endfacet
  facet normal 0.000000e+000 -1.000000e+000 0.000000e+000
    outer loop
      vertex  2.000000e+001 -3.273532e+001 0.000000e+000
      vertex  1.902113e+001 -3.273532e+001 6.180340e+000
      vertex  0.000000e+000 -3.273532e+001 0.000000e+000
    endloop
  endfacet
  facet normal 0.000000e+000 -1.000000e+000 0.000000e+000
    outer loop
      vertex  1.902114e+001 -3.273532e+001 -6.180344e+000
      vertex  2.000000e+001 -3.273532e+001 0.000000e+000
      vertex  0.000000e+000 -3.273532e+001 0.000000e+000
    endloop
  endfacet
  facet normal 9.876884e-001 0.000000e+000 -1.564345e-001
    outer loop
      vertex  1.999000e+001 -3.277018e+001 0.000000e+000
      vertex  1.901162e+001 -3.277018e+001 -6.177250e+000
      vertex  1.999000e+001 3.694834e+001 0.000000e+000
    endloop
  endfacet
  facet normal 9.876884e-001 0.000000e+000 -1.564345e-001
    outer loop
      vertex  1.999000e+001 3.694834e+001 0.000000e+000
      vertex  1.901162e+001 -3.277018e+001 -6.177250e+000
      vertex  1.901162e+001 3.694834e+001 -6.177250e+000
    endloop
  endfacet
  facet normal 8.910067e-001 0.000000e+000 -4.539902e-001
    outer loop
      vertex  1.901162e+001 -3.277018e+001 -6.177250e+000
      vertex  1.617225e+001 -3.277018e+001 -1.174983e+001
      vertex  1.901162e+001 3.694834e+001 -6.177250e+000
    endloop
  endfacet
  facet normal 8.910067e-001 0.000000e+000 -4.539902e-001
    outer loop
      vertex  1.901162e+001 3.694834e+001 -6.177250e+000
      vertex  1.617225e+001 -3.277018e+001 -1.174983e+001
      vertex  1.617225e+001 3.694834e+001 -1.174983e+001
    endloop
  endfacet
  facet normal 7.071068e-001 0.000000e+000 -7.071068e-001
    outer loop
      vertex  1.617225e+001 -3.277018e+001 -1.174983e+001
      vertex  1.174983e+001 -3.277018e+001 -1.617225e+001
      vertex  1.617225e+001 3.694834e+001 -1.174983e+001
    endloop
  endfacet
  facet normal 7.071068e-001 0.000000e+000 -7.071068e-001
    outer loop
      vertex  1.617225e+001 3.694834e+001 -1.174983e+001
      vertex  1.174983e+001 -3.277018e+001 -1.617225e+001
      vertex  1.174983e+001 3.694834e+001 -1.617225e+001
    endloop
  endfacet
  facet normal 4.539902e-001 0.000000e+000 -8.910066e-001
    outer loop
      vertex  1.174983e+001 -3.277018e+001 -1.617225e+001
      vertex  6.177251e+000 -3.277018e+001 -1.901162e+001
      vertex  1.174983e+001 3.694834e+001 -1.617225e+001
    endloop
  endfacet
  facet normal 4.539902e-001 0.000000e+000 -8.910066e-001
    outer loop
      vertex  1.174983e+001 3.694834e+001 -1.617225e+001
      vertex  6.177251e+000 -3.277018e+001 -1.901162e+001
      vertex  6.177251e+000 3.694834e+001 -1.901162e+001
    endloop
  endfacet
  facet normal 1.564344e-001 0.000000e+000 -9.876884e-001
    outer loop
      vertex  6.177251e+000 -3.277018e+001 -1.901162e+001
      vertex  0.000000e+000 -3.277018e+001 -1.999000e+001
      vertex  6.177251e+000 3.694834e+001 -1.901162e+001
    endloop
  endfacet
  facet normal 1.564344e-001 0.000000e+000 -9.876884e-001
    outer loop
      vertex  6.177251e+000 3.694834e+001 -1.901162e+001
      vertex  0.000000e+000 -3.277018e+001 -1.999000e+001
      vertex  0.000000e+000 3.694834e+001 -1.999000e+001
    endloop
  endfacet
  facet normal -1.564345e-001 0.000000e+000 -9.876884e-001
    outer loop
      vertex  0.000000e+000 -3.277018e+001 -1.999000e+001
      vertex  -6.177250e+000 -3.277018e+001 -1.901162e+001
      vertex  0.000000e+000 3.694834e+001 -1.999000e+001
    endloop
  endfacet
  facet normal -1.564345e-001 0.000000e+000 -9.876884e-001
    outer loop
      vertex  0.000000e+000 3.694834e+001 -1.999000e+001
      vertex  -6.177250e+000 -3.277018e+001 -1.901162e+001
      vertex  -6.177250e+000 3.694834e+001 -1.901162e+001
    endloop
  endfacet
  facet normal -4.539902e-001 0.000000e+000 -8.910067e-001
    outer loop
      vertex  -6.177250e+000 -3.277018e+001 -1.901162e+001
      vertex  -1.174983e+001 -3.277018e+001 -1.617225e+001
      vertex  -6.177250e+000 3.694834e+001 -1.901162e+001
    endloop
  endfacet
  facet normal -4.539902e-001 0.000000e+000 -8.910067e-001
    outer loop
      vertex  -6.177250e+000 3.694834e+001 -1.901162e+001
      vertex  -1.174983e+001 -3.277018e+001 -1.617225e+001
      vertex  -1.174983e+001 3.694834e+001 -1.617225e+001
    endloop
  endfacet
  facet normal -7.071068e-001 0.000000e+000 -7.071068e-001
    outer loop
      vertex  -1.174983e+001 -3.277018e+001 -1.617225e+001
      vertex  -1.617225e+001 -3.277018e+001 -1.174983e+001
      vertex  -1.174983e+001 3.694834e+001 -1.617225e+001
    endloop
  endfacet
  facet normal -7.071068e-001 0.000000e+000 -7.071068e-001
    outer loop
      vertex  -1.174983e+001 3.694834e+001 -1.617225e+001
      vertex  -1.617225e+001 -3.277018e+001 -1.174983e+001
      vertex  -1.617225e+001 3.694834e+001 -1.174983e+001
    endloop
  endfacet
  facet normal -8.910059e-001 0.000000e+000 -4.539917e-001
    outer loop
      vertex  -1.617225e+001 -3.277018e+001 -1.174983e+001
      vertex  -1.901163e+001 -3.277018e+001 -6.177254e+000
      vertex  -1.617225e+001 3.694834e+001 -1.174983e+001
    endloop
  endfacet
  facet normal -8.910059e-001 0.000000e+000 -4.539917e-001
    outer loop
      vertex  -1.617225e+001 3.694834e+001 -1.174983e+001
      vertex  -1.901163e+001 -3.277018e+001 -6.177254e+000
      vertex  -1.901163e+001 3.694834e+001 -6.177254e+000
    endloop
  endfacet
  facet normal -9.876884e-001 0.000000e+000 -1.564344e-001
    outer loop
      vertex  -1.901163e+001 -3.277018e+001 -6.177254e+000
      vertex  -1.999001e+001 -3.277018e+001 -2.000000e-006
      vertex  -1.901163e+001 3.694834e+001 -6.177254e+000
    endloop
  endfacet
  facet normal -9.876884e-001 0.000000e+000 -1.564344e-001
    outer loop
      vertex  -1.901163e+001 3.694834e+001 -6.177254e+000
      vertex  -1.999001e+001 -3.277018e+001 -2.000000e-006
      vertex  -1.999001e+001 3.694834e+001 -2.000000e-006
    endloop
  endfacet
  facet normal -9.876884e-001 0.000000e+000 1.564344e-001
    outer loop
      vertex  -1.999001e+001 -3.277018e+001 -2.000000e-006
      vertex  -1.901163e+001 -3.277018e+001 6.177250e+000
      vertex  -1.999001e+001 3.694834e+001 -2.000000e-006
    endloop
  endfacet
  facet normal -9.876884e-001 0.000000e+000 1.564344e-001
    outer loop
      vertex  -1.999001e+001 3.694834e+001 -2.000000e-006
      vertex  -1.901163e+001 -3.277018e+001 6.177250e+000
      vertex  -1.901163e+001 3.694834e+001 6.177250e+000
    endloop
  endfacet
  facet normal -8.910067e-001 0.000000e+000 4.539902e-001
    outer loop
      vertex  -1.901163e+001 -3.277018e+001 6.177250e+000
      vertex  -1.617226e+001 -3.277018e+001 1.174983e+001
      vertex  -1.901163e+001 3.694834e+001 6.177250e+000
    endloop
  endfacet
  facet normal -8.910067e-001 0.000000e+000 4.539902e-001
    outer loop
      vertex  -1.901163e+001 3.694834e+001 6.177250e+000
      vertex  -1.617226e+001 -3.277018e+001 1.174983e+001
      vertex  -1.617226e+001 3.694834e+001 1.174983e+001
    endloop
  endfacet
  facet normal -7.071075e-001 0.000000e+000 7.071060e-001
    outer loop
      vertex  -1.617226e+001 -3.277018e+001 1.174983e+001
      vertex  -1.174984e+001 -3.277018e+001 1.617226e+001
      vertex  -1.617226e+001 3.694834e+001 1.174983e+001
    endloop
  endfacet
  facet normal -7.071075e-001 0.000000e+000 7.071060e-001
    outer loop
      vertex  -1.617226e+001 3.694834e+001 1.174983e+001
      vertex  -1.174984e+001 -3.277018e+001 1.617226e+001
      vertex  -1.174984e+001 3.694834e+001 1.617226e+001
    endloop
  endfacet
  facet normal -4.539899e-001 0.000000e+000 8.910068e-001
    outer loop
      vertex  -1.174984e+001 -3.277018e+001 1.617226e+001
      vertex  -6.177255e+000 -3.277018e+001 1.901163e+001
      vertex  -1.174984e+001 3.694834e+001 1.617226e+001
    endloop
  endfacet
  facet normal -4.539899e-001 0.000000e+000 8.910068e-001
    outer loop
      vertex  -1.174984e+001 3.694834e+001 1.617226e+001
      vertex  -6.177255e+000 -3.277018e+001 1.901163e+001
      vertex  -6.177255e+000 3.694834e+001 1.901163e+001
    endloop
  endfacet
  facet normal -1.564344e-001 0.000000e+000 9.876884e-001
    outer loop
      vertex  -6.177255e+000 -3.277018e+001 1.901163e+001
      vertex  -2.000000e-006 -3.277018e+001 1.999001e+001
      vertex  -6.177255e+000 3.694834e+001 1.901163e+001
    endloop
  endfacet
  facet normal -1.564344e-001 0.000000e+000 9.876884e-001
    outer loop
      vertex  -6.177255e+000 3.694834e+001 1.901163e+001
      vertex  -2.000000e-006 -3.277018e+001 1.999001e+001
      vertex  -2.000000e-006 3.694834e+001 1.999001e+001
    endloop
  endfacet
  facet normal 1.564344e-001 -0.000000e+000 9.876884e-001
    outer loop
      vertex  -2.000000e-006 -3.277018e+001 1.999001e+001
      vertex  6.177251e+000 -3.277018e+001 1.901163e+001
      vertex  -2.000000e-006 3.694834e+001 1.999001e+001
    endloop
  endfacet
  facet normal 1.564344e-001 0.000000e+000 9.876884e-001
    outer loop
      vertex  -2.000000e-006 3.694834e+001 1.999001e+001
      vertex  6.177251e+000 -3.277018e+001 1.901163e+001
      vertex  6.177251e+000 3.694834e+001 1.901163e+001
    endloop
  endfacet
  facet normal 4.539902e-001 -0.000000e+000 8.910066e-001
    outer loop
      vertex  6.177251e+000 -3.277018e+001 1.901163e+001
      vertex  1.174983e+001 -3.277018e+001 1.617226e+001
      vertex  6.177251e+000 3.694834e+001 1.901163e+001
    endloop
  endfacet
  facet normal 4.539902e-001 0.000000e+000 8.910066e-001
    outer loop
      vertex  6.177251e+000 3.694834e+001 1.901163e+001
      vertex  1.174983e+001 -3.277018e+001 1.617226e+001
      vertex  1.174983e+001 3.694834e+001 1.617226e+001
    endloop
  endfacet
  facet normal 7.071060e-001 -0.000000e+000 7.071075e-001
    outer loop
      vertex  1.174983e+001 -3.277018e+001 1.617226e+001
      vertex  1.617226e+001 -3.277018e+001 1.174984e+001
      vertex  1.174983e+001 3.694834e+001 1.617226e+001
    endloop
  endfacet
  facet normal 7.071060e-001 0.000000e+000 7.071075e-001
    outer loop
      vertex  1.174983e+001 3.694834e+001 1.617226e+001
      vertex  1.617226e+001 -3.277018e+001 1.174984e+001
      vertex  1.617226e+001 3.694834e+001 1.174984e+001
    endloop
  endfacet
  facet normal 8.910068e-001 -0.000000e+000 4.539899e-001
    outer loop
      vertex  1.617226e+001 -3.277018e+001 1.174984e+001
      vertex  1.901163e+001 -3.277018e+001 6.177255e+000
      vertex  1.617226e+001 3.694834e+001 1.174984e+001
    endloop
  endfacet
  facet normal 8.910068e-001 0.000000e+000 4.539899e-001
    outer loop
      vertex  1.617226e+001 3.694834e+001 1.174984e+001
      vertex  1.901163e+001 -3.277018e+001 6.177255e+000
      vertex  1.901163e+001 3.694834e+001 6.177255e+000
    endloop
  endfacet
  facet normal 9.876886e-001 -0.000000e+000 1.564328e-001
    outer loop
      vertex  1.901163e+001 -3.277018e+001 6.177255e+000
      vertex  1.999000e+001 -3.277018e+001 0.000000e+000
      vertex  1.901163e+001 3.694834e+001 6.177255e+000
    endloop
  endfacet
  facet normal 9.876886e-001 0.000000e+000 1.564328e-001
    outer loop
      vertex  1.901163e+001 3.694834e+001 6.177255e+000
      vertex  1.999000e+001 -3.277018e+001 0.000000e+000
      vertex  1.999000e+001 3.694834e+001 0.000000e+000
    endloop
  endfacet
endsolid vcg
