solid vcg
  facet normal 2.617455e-001 -8.520313e-001 -4.533564e-001
    outer loop
      vertex  2.620027e+000 -9.396926e+000 -2.198463e+000
      vertex  5.939120e-001 -9.396926e+000 -3.368241e+000
      vertex  4.924040e+000 -7.660444e+000 -4.131759e+000
    endloop
  endfacet
  facet normal 2.617455e-001 -8.520313e-001 -4.533563e-001
    outer loop
      vertex  4.924040e+000 -7.660444e+000 -4.131759e+000
      vertex  5.939120e-001 -9.396926e+000 -3.368241e+000
      vertex  1.116190e+000 -7.660444e+000 -6.330223e+000
    endloop
  endfacet
  facet normal -9.090310e-002 -8.520313e-001 -5.155379e-001
    outer loop
      vertex  5.939120e-001 -9.396926e+000 -3.368241e+000
      vertex  -1.710101e+000 -9.396926e+000 -2.961982e+000
      vertex  1.116190e+000 -7.660444e+000 -6.330223e+000
    endloop
  endfacet
  facet normal -9.090318e-002 -8.520313e-001 -5.155379e-001
    outer loop
      vertex  1.116190e+000 -7.660444e+000 -6.330223e+000
      vertex  -1.710101e+000 -9.396926e+000 -2.961982e+000
      vertex  -3.213938e+000 -7.660444e+000 -5.566705e+000
    endloop
  endfacet
  facet normal -4.010174e-001 -8.520312e-001 -3.364934e-001
    outer loop
      vertex  -1.710101e+000 -9.396926e+000 -2.961982e+000
      vertex  -3.213938e+000 -9.396926e+000 -1.169778e+000
      vertex  -3.213938e+000 -7.660444e+000 -5.566705e+000
    endloop
  endfacet
  facet normal -4.010173e-001 -8.520313e-001 -3.364934e-001
    outer loop
      vertex  -3.213938e+000 -7.660444e+000 -5.566705e+000
      vertex  -3.213938e+000 -9.396926e+000 -1.169778e+000
      vertex  -6.040228e+000 -7.660444e+000 -2.198464e+000
    endloop
  endfacet
  facet normal -5.234909e-001 -8.520312e-001 0.000000e+000
    outer loop
      vertex  -3.213938e+000 -9.396926e+000 -1.169778e+000
      vertex  -3.213938e+000 -9.396926e+000 1.169778e+000
      vertex  -6.040228e+000 -7.660444e+000 -2.198464e+000
    endloop
  endfacet
  facet normal -5.234908e-001 -8.520313e-001 -1.135429e-007
    outer loop
      vertex  -6.040228e+000 -7.660444e+000 -2.198464e+000
      vertex  -3.213938e+000 -9.396926e+000 1.169778e+000
      vertex  -6.040229e+000 -7.660444e+000 2.198463e+000
    endloop
  endfacet
  facet normal -4.010172e-001 -8.520313e-001 3.364934e-001
    outer loop
      vertex  -3.213938e+000 -9.396926e+000 1.169778e+000
      vertex  -1.710101e+000 -9.396926e+000 2.961981e+000
      vertex  -6.040229e+000 -7.660444e+000 2.198463e+000
    endloop
  endfacet
  facet normal -4.010172e-001 -8.520313e-001 3.364935e-001
    outer loop
      vertex  -6.040229e+000 -7.660444e+000 2.198463e+000
      vertex  -1.710101e+000 -9.396926e+000 2.961981e+000
      vertex  -3.213939e+000 -7.660444e+000 5.566704e+000
    endloop
  endfacet
  facet normal -9.090332e-002 -8.520313e-001 5.155379e-001
    outer loop
      vertex  -1.710101e+000 -9.396926e+000 2.961981e+000
      vertex  5.939120e-001 -9.396926e+000 3.368241e+000
      vertex  -3.213939e+000 -7.660444e+000 5.566704e+000
    endloop
  endfacet
  facet normal -9.090334e-002 -8.520313e-001 5.155379e-001
    outer loop
      vertex  -3.213939e+000 -7.660444e+000 5.566704e+000
      vertex  5.939120e-001 -9.396926e+000 3.368241e+000
      vertex  1.116189e+000 -7.660444e+000 6.330223e+000
    endloop
  endfacet
  facet normal 2.617455e-001 -8.520313e-001 4.533564e-001
    outer loop
      vertex  5.939120e-001 -9.396926e+000 3.368241e+000
      vertex  2.620026e+000 -9.396926e+000 2.198463e+000
      vertex  1.116189e+000 -7.660444e+000 6.330223e+000
    endloop
  endfacet
  facet normal 2.617454e-001 -8.520314e-001 4.533563e-001
    outer loop
      vertex  1.116189e+000 -7.660444e+000 6.330223e+000
      vertex  2.620026e+000 -9.396926e+000 2.198463e+000
      vertex  4.924039e+000 -7.660444e+000 4.131760e+000
    endloop
  endfacet
  facet normal 4.919204e-001 -8.520314e-001 1.790446e-001
    outer loop
      vertex  2.620026e+000 -9.396926e+000 2.198463e+000
      vertex  3.420202e+000 -9.396926e+000 0.000000e+000
      vertex  4.924039e+000 -7.660444e+000 4.131760e+000
    endloop
  endfacet
  facet normal 4.919207e-001 -8.520312e-001 1.790444e-001
    outer loop
      vertex  4.924039e+000 -7.660444e+000 4.131760e+000
      vertex  3.420202e+000 -9.396926e+000 0.000000e+000
      vertex  6.427876e+000 -7.660444e+000 0.000000e+000
    endloop
  endfacet
  facet normal 4.919207e-001 -8.520312e-001 -1.790444e-001
    outer loop
      vertex  3.420202e+000 -9.396926e+000 0.000000e+000
      vertex  2.620027e+000 -9.396926e+000 -2.198463e+000
      vertex  6.427876e+000 -7.660444e+000 0.000000e+000
    endloop
  endfacet
  facet normal 4.919206e-001 -8.520312e-001 -1.790443e-001
    outer loop
      vertex  6.427876e+000 -7.660444e+000 0.000000e+000
      vertex  2.620027e+000 -9.396926e+000 -2.198463e+000
      vertex  4.924040e+000 -7.660444e+000 -4.131759e+000
    endloop
  endfacet
  facet normal 3.926281e-001 -6.191713e-001 -6.800516e-001
    outer loop
      vertex  4.924040e+000 -7.660444e+000 -4.131759e+000
      vertex  1.116190e+000 -7.660444e+000 -6.330223e+000
      vertex  6.634142e+000 -5.000000e+000 -5.566704e+000
    endloop
  endfacet
  facet normal 3.926281e-001 -6.191713e-001 -6.800516e-001
    outer loop
      vertex  6.634142e+000 -5.000000e+000 -5.566704e+000
      vertex  1.116190e+000 -7.660444e+000 -6.330223e+000
      vertex  1.503839e+000 -5.000000e+000 -8.528687e+000
    endloop
  endfacet
  facet normal -1.363582e-001 -6.191713e-001 -7.733262e-001
    outer loop
      vertex  1.116190e+000 -7.660444e+000 -6.330223e+000
      vertex  -3.213938e+000 -7.660444e+000 -5.566705e+000
      vertex  1.503839e+000 -5.000000e+000 -8.528687e+000
    endloop
  endfacet
  facet normal -1.363581e-001 -6.191713e-001 -7.733262e-001
    outer loop
      vertex  1.503839e+000 -5.000000e+000 -8.528687e+000
      vertex  -3.213938e+000 -7.660444e+000 -5.566705e+000
      vertex  -4.330127e+000 -5.000000e+000 -7.500002e+000
    endloop
  endfacet
  facet normal -6.015410e-001 -6.191712e-001 -5.047528e-001
    outer loop
      vertex  -3.213938e+000 -7.660444e+000 -5.566705e+000
      vertex  -6.040228e+000 -7.660444e+000 -2.198464e+000
      vertex  -4.330127e+000 -5.000000e+000 -7.500002e+000
    endloop
  endfacet
  facet normal -6.015410e-001 -6.191713e-001 -5.047528e-001
    outer loop
      vertex  -4.330127e+000 -5.000000e+000 -7.500002e+000
      vertex  -6.040228e+000 -7.660444e+000 -2.198464e+000
      vertex  -8.137978e+000 -5.000000e+000 -2.961982e+000
    endloop
  endfacet
  facet normal -7.852559e-001 -6.191713e-001 -1.703186e-007
    outer loop
      vertex  -6.040228e+000 -7.660444e+000 -2.198464e+000
      vertex  -6.040229e+000 -7.660444e+000 2.198463e+000
      vertex  -8.137978e+000 -5.000000e+000 -2.961982e+000
    endloop
  endfacet
  facet normal -7.852560e-001 -6.191713e-001 -1.264151e-007
    outer loop
      vertex  -8.137978e+000 -5.000000e+000 -2.961982e+000
      vertex  -6.040229e+000 -7.660444e+000 2.198463e+000
      vertex  -8.137979e+000 -5.000000e+000 2.961981e+000
    endloop
  endfacet
  facet normal -6.015410e-001 -6.191713e-001 5.047528e-001
    outer loop
      vertex  -6.040229e+000 -7.660444e+000 2.198463e+000
      vertex  -3.213939e+000 -7.660444e+000 5.566704e+000
      vertex  -8.137979e+000 -5.000000e+000 2.961981e+000
    endloop
  endfacet
  facet normal -6.015410e-001 -6.191713e-001 5.047528e-001
    outer loop
      vertex  -8.137979e+000 -5.000000e+000 2.961981e+000
      vertex  -3.213939e+000 -7.660444e+000 5.566704e+000
      vertex  -4.330128e+000 -5.000000e+000 7.500000e+000
    endloop
  endfacet
  facet normal -1.363584e-001 -6.191713e-001 7.733262e-001
    outer loop
      vertex  -3.213939e+000 -7.660444e+000 5.566704e+000
      vertex  1.116189e+000 -7.660444e+000 6.330223e+000
      vertex  -4.330128e+000 -5.000000e+000 7.500000e+000
    endloop
  endfacet
  facet normal -1.363584e-001 -6.191713e-001 7.733262e-001
    outer loop
      vertex  -4.330128e+000 -5.000000e+000 7.500000e+000
      vertex  1.116189e+000 -7.660444e+000 6.330223e+000
      vertex  1.503837e+000 -5.000000e+000 8.528687e+000
    endloop
  endfacet
  facet normal 3.926280e-001 -6.191712e-001 6.800517e-001
    outer loop
      vertex  1.116189e+000 -7.660444e+000 6.330223e+000
      vertex  4.924039e+000 -7.660444e+000 4.131760e+000
      vertex  1.503837e+000 -5.000000e+000 8.528687e+000
    endloop
  endfacet
  facet normal 3.926282e-001 -6.191710e-001 6.800517e-001
    outer loop
      vertex  1.503837e+000 -5.000000e+000 8.528687e+000
      vertex  4.924039e+000 -7.660444e+000 4.131760e+000
      vertex  6.634140e+000 -5.000000e+000 5.566704e+000
    endloop
  endfacet
  facet normal 7.378994e-001 -6.191711e-001 2.685733e-001
    outer loop
      vertex  4.924039e+000 -7.660444e+000 4.131760e+000
      vertex  6.427876e+000 -7.660444e+000 0.000000e+000
      vertex  6.634140e+000 -5.000000e+000 5.566704e+000
    endloop
  endfacet
  facet normal 7.378994e-001 -6.191711e-001 2.685733e-001
    outer loop
      vertex  6.634140e+000 -5.000000e+000 5.566704e+000
      vertex  6.427876e+000 -7.660444e+000 0.000000e+000
      vertex  8.660254e+000 -5.000000e+000 0.000000e+000
    endloop
  endfacet
  facet normal 7.378994e-001 -6.191711e-001 -2.685732e-001
    outer loop
      vertex  6.427876e+000 -7.660444e+000 0.000000e+000
      vertex  4.924040e+000 -7.660444e+000 -4.131759e+000
      vertex  8.660254e+000 -5.000000e+000 0.000000e+000
    endloop
  endfacet
  facet normal 7.378993e-001 -6.191713e-001 -2.685730e-001
    outer loop
      vertex  8.660254e+000 -5.000000e+000 0.000000e+000
      vertex  4.924040e+000 -7.660444e+000 -4.131759e+000
      vertex  6.634142e+000 -5.000000e+000 -5.566704e+000
    endloop
  endfacet
  facet normal 4.730945e-001 -3.236155e-001 -8.194234e-001
    outer loop
      vertex  6.634142e+000 -5.000000e+000 -5.566704e+000
      vertex  1.503839e+000 -5.000000e+000 -8.528687e+000
      vertex  7.544067e+000 -1.736481e+000 -6.330222e+000
    endloop
  endfacet
  facet normal 4.730945e-001 -3.236156e-001 -8.194233e-001
    outer loop
      vertex  7.544067e+000 -1.736481e+000 -6.330222e+000
      vertex  1.503839e+000 -5.000000e+000 -8.528687e+000
      vertex  1.710103e+000 -1.736481e+000 -9.698464e+000
    endloop
  endfacet
  facet normal -1.643038e-001 -3.236155e-001 -9.318140e-001
    outer loop
      vertex  1.503839e+000 -5.000000e+000 -8.528687e+000
      vertex  -4.330127e+000 -5.000000e+000 -7.500002e+000
      vertex  1.710103e+000 -1.736481e+000 -9.698464e+000
    endloop
  endfacet
  facet normal -1.643039e-001 -3.236153e-001 -9.318140e-001
    outer loop
      vertex  1.710103e+000 -1.736481e+000 -9.698464e+000
      vertex  -4.330127e+000 -5.000000e+000 -7.500002e+000
      vertex  -4.924038e+000 -1.736481e+000 -8.528687e+000
    endloop
  endfacet
  facet normal -7.248226e-001 -3.236153e-001 -6.081984e-001
    outer loop
      vertex  -4.330127e+000 -5.000000e+000 -7.500002e+000
      vertex  -8.137978e+000 -5.000000e+000 -2.961982e+000
      vertex  -4.924038e+000 -1.736481e+000 -8.528687e+000
    endloop
  endfacet
  facet normal -7.248225e-001 -3.236156e-001 -6.081985e-001
    outer loop
      vertex  -4.924038e+000 -1.736481e+000 -8.528687e+000
      vertex  -8.137978e+000 -5.000000e+000 -2.961982e+000
      vertex  -9.254167e+000 -1.736481e+000 -3.368242e+000
    endloop
  endfacet
  facet normal -9.461887e-001 -3.236155e-001 -1.523230e-007
    outer loop
      vertex  -8.137978e+000 -5.000000e+000 -2.961982e+000
      vertex  -8.137979e+000 -5.000000e+000 2.961981e+000
      vertex  -9.254167e+000 -1.736481e+000 -3.368242e+000
    endloop
  endfacet
  facet normal -9.461887e-001 -3.236155e-001 -1.339506e-007
    outer loop
      vertex  -9.254167e+000 -1.736481e+000 -3.368242e+000
      vertex  -8.137979e+000 -5.000000e+000 2.961981e+000
      vertex  -9.254168e+000 -1.736481e+000 3.368241e+000
    endloop
  endfacet
  facet normal -7.248225e-001 -3.236156e-001 6.081983e-001
    outer loop
      vertex  -8.137979e+000 -5.000000e+000 2.961981e+000
      vertex  -4.330128e+000 -5.000000e+000 7.500000e+000
      vertex  -9.254168e+000 -1.736481e+000 3.368241e+000
    endloop
  endfacet
  facet normal -7.248225e-001 -3.236153e-001 6.081985e-001
    outer loop
      vertex  -9.254168e+000 -1.736481e+000 3.368241e+000
      vertex  -4.330128e+000 -5.000000e+000 7.500000e+000
      vertex  -4.924039e+000 -1.736481e+000 8.528686e+000
    endloop
  endfacet
  facet normal -1.643041e-001 -3.236156e-001 9.318139e-001
    outer loop
      vertex  -4.330128e+000 -5.000000e+000 7.500000e+000
      vertex  1.503837e+000 -5.000000e+000 8.528687e+000
      vertex  -4.924039e+000 -1.736481e+000 8.528686e+000
    endloop
  endfacet
  facet normal -1.643040e-001 -3.236153e-001 9.318140e-001
    outer loop
      vertex  -4.924039e+000 -1.736481e+000 8.528686e+000
      vertex  1.503837e+000 -5.000000e+000 8.528687e+000
      vertex  1.710100e+000 -1.736481e+000 9.698463e+000
    endloop
  endfacet
  facet normal 4.730945e-001 -3.236153e-001 8.194234e-001
    outer loop
      vertex  1.503837e+000 -5.000000e+000 8.528687e+000
      vertex  6.634140e+000 -5.000000e+000 5.566704e+000
      vertex  1.710100e+000 -1.736481e+000 9.698463e+000
    endloop
  endfacet
  facet normal 4.730942e-001 -3.236156e-001 8.194234e-001
    outer loop
      vertex  1.710100e+000 -1.736481e+000 9.698463e+000
      vertex  6.634140e+000 -5.000000e+000 5.566704e+000
      vertex  7.544065e+000 -1.736481e+000 6.330223e+000
    endloop
  endfacet
  facet normal 8.891266e-001 -3.236154e-001 3.236155e-001
    outer loop
      vertex  6.634140e+000 -5.000000e+000 5.566704e+000
      vertex  8.660254e+000 -5.000000e+000 0.000000e+000
      vertex  7.544065e+000 -1.736481e+000 6.330223e+000
    endloop
  endfacet
  facet normal 8.891265e-001 -3.236157e-001 3.236156e-001
    outer loop
      vertex  7.544065e+000 -1.736481e+000 6.330223e+000
      vertex  8.660254e+000 -5.000000e+000 0.000000e+000
      vertex  9.848078e+000 -1.736481e+000 0.000000e+000
    endloop
  endfacet
  facet normal 8.891266e-001 -3.236157e-001 -3.236152e-001
    outer loop
      vertex  8.660254e+000 -5.000000e+000 0.000000e+000
      vertex  6.634142e+000 -5.000000e+000 -5.566704e+000
      vertex  9.848078e+000 -1.736481e+000 0.000000e+000
    endloop
  endfacet
  facet normal 8.891267e-001 -3.236153e-001 -3.236154e-001
    outer loop
      vertex  9.848078e+000 -1.736481e+000 0.000000e+000
      vertex  6.634142e+000 -5.000000e+000 -5.566704e+000
      vertex  7.544067e+000 -1.736481e+000 -6.330222e+000
    endloop
  endfacet
  facet normal 5.000002e-001 0.000000e+000 -8.660253e-001
    outer loop
      vertex  7.544067e+000 -1.736481e+000 -6.330222e+000
      vertex  1.710103e+000 -1.736481e+000 -9.698464e+000
      vertex  7.544067e+000 1.736481e+000 -6.330222e+000
    endloop
  endfacet
  facet normal 5.000002e-001 0.000000e+000 -8.660253e-001
    outer loop
      vertex  7.544067e+000 1.736481e+000 -6.330222e+000
      vertex  1.710103e+000 -1.736481e+000 -9.698464e+000
      vertex  1.710103e+000 1.736481e+000 -9.698464e+000
    endloop
  endfacet
  facet normal -1.736481e-001 0.000000e+000 -9.848077e-001
    outer loop
      vertex  1.710103e+000 -1.736481e+000 -9.698464e+000
      vertex  -4.924038e+000 -1.736481e+000 -8.528687e+000
      vertex  1.710103e+000 1.736481e+000 -9.698464e+000
    endloop
  endfacet
  facet normal -1.736481e-001 0.000000e+000 -9.848077e-001
    outer loop
      vertex  1.710103e+000 1.736481e+000 -9.698464e+000
      vertex  -4.924038e+000 -1.736481e+000 -8.528687e+000
      vertex  -4.924038e+000 1.736481e+000 -8.528687e+000
    endloop
  endfacet
  facet normal -7.660443e-001 0.000000e+000 -6.427878e-001
    outer loop
      vertex  -4.924038e+000 -1.736481e+000 -8.528687e+000
      vertex  -9.254167e+000 -1.736481e+000 -3.368242e+000
      vertex  -4.924038e+000 1.736481e+000 -8.528687e+000
    endloop
  endfacet
  facet normal -7.660443e-001 0.000000e+000 -6.427878e-001
    outer loop
      vertex  -4.924038e+000 1.736481e+000 -8.528687e+000
      vertex  -9.254167e+000 -1.736481e+000 -3.368242e+000
      vertex  -9.254167e+000 1.736481e+000 -3.368242e+000
    endloop
  endfacet
  facet normal -1.000000e+000 0.000000e+000 -1.415686e-007
    outer loop
      vertex  -9.254167e+000 -1.736481e+000 -3.368242e+000
      vertex  -9.254168e+000 -1.736481e+000 3.368241e+000
      vertex  -9.254167e+000 1.736481e+000 -3.368242e+000
    endloop
  endfacet
  facet normal -1.000000e+000 0.000000e+000 -1.415686e-007
    outer loop
      vertex  -9.254167e+000 1.736481e+000 -3.368242e+000
      vertex  -9.254168e+000 -1.736481e+000 3.368241e+000
      vertex  -9.254168e+000 1.736481e+000 3.368241e+000
    endloop
  endfacet
  facet normal -7.660443e-001 0.000000e+000 6.427878e-001
    outer loop
      vertex  -9.254168e+000 -1.736481e+000 3.368241e+000
      vertex  -4.924039e+000 -1.736481e+000 8.528686e+000
      vertex  -9.254168e+000 1.736481e+000 3.368241e+000
    endloop
  endfacet
  facet normal -7.660443e-001 0.000000e+000 6.427878e-001
    outer loop
      vertex  -9.254168e+000 1.736481e+000 3.368241e+000
      vertex  -4.924039e+000 -1.736481e+000 8.528686e+000
      vertex  -4.924039e+000 1.736481e+000 8.528686e+000
    endloop
  endfacet
  facet normal -1.736482e-001 0.000000e+000 9.848077e-001
    outer loop
      vertex  -4.924039e+000 -1.736481e+000 8.528686e+000
      vertex  1.710100e+000 -1.736481e+000 9.698463e+000
      vertex  -4.924039e+000 1.736481e+000 8.528686e+000
    endloop
  endfacet
  facet normal -1.736482e-001 0.000000e+000 9.848077e-001
    outer loop
      vertex  -4.924039e+000 1.736481e+000 8.528686e+000
      vertex  1.710100e+000 -1.736481e+000 9.698463e+000
      vertex  1.710100e+000 1.736481e+000 9.698463e+000
    endloop
  endfacet
  facet normal 4.999999e-001 -0.000000e+000 8.660254e-001
    outer loop
      vertex  1.710100e+000 -1.736481e+000 9.698463e+000
      vertex  7.544065e+000 -1.736481e+000 6.330223e+000
      vertex  1.710100e+000 1.736481e+000 9.698463e+000
    endloop
  endfacet
  facet normal 4.999999e-001 0.000000e+000 8.660254e-001
    outer loop
      vertex  1.710100e+000 1.736481e+000 9.698463e+000
      vertex  7.544065e+000 -1.736481e+000 6.330223e+000
      vertex  7.544065e+000 1.736481e+000 6.330223e+000
    endloop
  endfacet
  facet normal 9.396926e-001 -0.000000e+000 3.420202e-001
    outer loop
      vertex  7.544065e+000 -1.736481e+000 6.330223e+000
      vertex  9.848078e+000 -1.736481e+000 0.000000e+000
      vertex  7.544065e+000 1.736481e+000 6.330223e+000
    endloop
  endfacet
  facet normal 9.396926e-001 0.000000e+000 3.420202e-001
    outer loop
      vertex  7.544065e+000 1.736481e+000 6.330223e+000
      vertex  9.848078e+000 -1.736481e+000 0.000000e+000
      vertex  9.848078e+000 1.736481e+000 0.000000e+000
    endloop
  endfacet
  facet normal 9.396927e-001 0.000000e+000 -3.420199e-001
    outer loop
      vertex  9.848078e+000 -1.736481e+000 0.000000e+000
      vertex  7.544067e+000 -1.736481e+000 -6.330222e+000
      vertex  9.848078e+000 1.736481e+000 0.000000e+000
    endloop
  endfacet
  facet normal 9.396927e-001 0.000000e+000 -3.420199e-001
    outer loop
      vertex  9.848078e+000 1.736481e+000 0.000000e+000
      vertex  7.544067e+000 -1.736481e+000 -6.330222e+000
      vertex  7.544067e+000 1.736481e+000 -6.330222e+000
    endloop
  endfacet
  facet normal 4.730945e-001 3.236155e-001 -8.194233e-001
    outer loop
      vertex  7.544067e+000 1.736481e+000 -6.330222e+000
      vertex  1.710103e+000 1.736481e+000 -9.698464e+000
      vertex  6.634142e+000 5.000000e+000 -5.566704e+000
    endloop
  endfacet
  facet normal 4.730944e-001 3.236156e-001 -8.194233e-001
    outer loop
      vertex  6.634142e+000 5.000000e+000 -5.566704e+000
      vertex  1.710103e+000 1.736481e+000 -9.698464e+000
      vertex  1.503839e+000 5.000000e+000 -8.528687e+000
    endloop
  endfacet
  facet normal -1.643039e-001 3.236155e-001 -9.318140e-001
    outer loop
      vertex  1.710103e+000 1.736481e+000 -9.698464e+000
      vertex  -4.924038e+000 1.736481e+000 -8.528687e+000
      vertex  1.503839e+000 5.000000e+000 -8.528687e+000
    endloop
  endfacet
  facet normal -1.643038e-001 3.236153e-001 -9.318140e-001
    outer loop
      vertex  1.503839e+000 5.000000e+000 -8.528687e+000
      vertex  -4.924038e+000 1.736481e+000 -8.528687e+000
      vertex  -4.330127e+000 5.000000e+000 -7.500002e+000
    endloop
  endfacet
  facet normal -7.248225e-001 3.236153e-001 -6.081985e-001
    outer loop
      vertex  -4.924038e+000 1.736481e+000 -8.528687e+000
      vertex  -9.254167e+000 1.736481e+000 -3.368242e+000
      vertex  -4.330127e+000 5.000000e+000 -7.500002e+000
    endloop
  endfacet
  facet normal -7.248226e-001 3.236156e-001 -6.081983e-001
    outer loop
      vertex  -4.330127e+000 5.000000e+000 -7.500002e+000
      vertex  -9.254167e+000 1.736481e+000 -3.368242e+000
      vertex  -8.137978e+000 5.000000e+000 -2.961982e+000
    endloop
  endfacet
  facet normal -9.461887e-001 3.236155e-001 -1.339506e-007
    outer loop
      vertex  -9.254167e+000 1.736481e+000 -3.368242e+000
      vertex  -9.254168e+000 1.736481e+000 3.368241e+000
      vertex  -8.137978e+000 5.000000e+000 -2.961982e+000
    endloop
  endfacet
  facet normal -9.461887e-001 3.236155e-001 -1.523230e-007
    outer loop
      vertex  -8.137978e+000 5.000000e+000 -2.961982e+000
      vertex  -9.254168e+000 1.736481e+000 3.368241e+000
      vertex  -8.137979e+000 5.000000e+000 2.961981e+000
    endloop
  endfacet
  facet normal -7.248225e-001 3.236156e-001 6.081985e-001
    outer loop
      vertex  -9.254168e+000 1.736481e+000 3.368241e+000
      vertex  -4.924039e+000 1.736481e+000 8.528686e+000
      vertex  -8.137979e+000 5.000000e+000 2.961981e+000
    endloop
  endfacet
  facet normal -7.248226e-001 3.236153e-001 6.081984e-001
    outer loop
      vertex  -8.137979e+000 5.000000e+000 2.961981e+000
      vertex  -4.924039e+000 1.736481e+000 8.528686e+000
      vertex  -4.330128e+000 5.000000e+000 7.500000e+000
    endloop
  endfacet
  facet normal -1.643040e-001 3.236155e-001 9.318140e-001
    outer loop
      vertex  -4.924039e+000 1.736481e+000 8.528686e+000
      vertex  1.710100e+000 1.736481e+000 9.698463e+000
      vertex  -4.330128e+000 5.000000e+000 7.500000e+000
    endloop
  endfacet
  facet normal -1.643041e-001 3.236153e-001 9.318140e-001
    outer loop
      vertex  -4.330128e+000 5.000000e+000 7.500000e+000
      vertex  1.710100e+000 1.736481e+000 9.698463e+000
      vertex  1.503837e+000 5.000000e+000 8.528687e+000
    endloop
  endfacet
  facet normal 4.730943e-001 3.236153e-001 8.194236e-001
    outer loop
      vertex  1.710100e+000 1.736481e+000 9.698463e+000
      vertex  7.544065e+000 1.736481e+000 6.330223e+000
      vertex  1.503837e+000 5.000000e+000 8.528687e+000
    endloop
  endfacet
  facet normal 4.730944e-001 3.236157e-001 8.194233e-001
    outer loop
      vertex  1.503837e+000 5.000000e+000 8.528687e+000
      vertex  7.544065e+000 1.736481e+000 6.330223e+000
      vertex  6.634140e+000 5.000000e+000 5.566704e+000
    endloop
  endfacet
  facet normal 8.891265e-001 3.236155e-001 3.236156e-001
    outer loop
      vertex  7.544065e+000 1.736481e+000 6.330223e+000
      vertex  9.848078e+000 1.736481e+000 0.000000e+000
      vertex  6.634140e+000 5.000000e+000 5.566704e+000
    endloop
  endfacet
  facet normal 8.891265e-001 3.236157e-001 3.236154e-001
    outer loop
      vertex  6.634140e+000 5.000000e+000 5.566704e+000
      vertex  9.848078e+000 1.736481e+000 0.000000e+000
      vertex  8.660254e+000 5.000000e+000 0.000000e+000
    endloop
  endfacet
  facet normal 8.891265e-001 3.236157e-001 -3.236154e-001
    outer loop
      vertex  9.848078e+000 1.736481e+000 0.000000e+000
      vertex  7.544067e+000 1.736481e+000 -6.330222e+000
      vertex  8.660254e+000 5.000000e+000 0.000000e+000
    endloop
  endfacet
  facet normal 8.891267e-001 3.236153e-001 -3.236152e-001
    outer loop
      vertex  8.660254e+000 5.000000e+000 0.000000e+000
      vertex  7.544067e+000 1.736481e+000 -6.330222e+000
      vertex  6.634142e+000 5.000000e+000 -5.566704e+000
    endloop
  endfacet
  facet normal 3.926281e-001 6.191713e-001 -6.800516e-001
    outer loop
      vertex  6.634142e+000 5.000000e+000 -5.566704e+000
      vertex  1.503839e+000 5.000000e+000 -8.528687e+000
      vertex  4.924040e+000 7.660444e+000 -4.131759e+000
    endloop
  endfacet
  facet normal 3.926281e-001 6.191713e-001 -6.800516e-001
    outer loop
      vertex  4.924040e+000 7.660444e+000 -4.131759e+000
      vertex  1.503839e+000 5.000000e+000 -8.528687e+000
      vertex  1.116190e+000 7.660444e+000 -6.330223e+000
    endloop
  endfacet
  facet normal -1.363581e-001 6.191713e-001 -7.733262e-001
    outer loop
      vertex  1.503839e+000 5.000000e+000 -8.528687e+000
      vertex  -4.330127e+000 5.000000e+000 -7.500002e+000
      vertex  1.116190e+000 7.660444e+000 -6.330223e+000
    endloop
  endfacet
  facet normal -1.363582e-001 6.191713e-001 -7.733262e-001
    outer loop
      vertex  1.116190e+000 7.660444e+000 -6.330223e+000
      vertex  -4.330127e+000 5.000000e+000 -7.500002e+000
      vertex  -3.213938e+000 7.660444e+000 -5.566705e+000
    endloop
  endfacet
  facet normal -6.015410e-001 6.191713e-001 -5.047528e-001
    outer loop
      vertex  -4.330127e+000 5.000000e+000 -7.500002e+000
      vertex  -8.137978e+000 5.000000e+000 -2.961982e+000
      vertex  -3.213938e+000 7.660444e+000 -5.566705e+000
    endloop
  endfacet
  facet normal -6.015410e-001 6.191713e-001 -5.047528e-001
    outer loop
      vertex  -3.213938e+000 7.660444e+000 -5.566705e+000
      vertex  -8.137978e+000 5.000000e+000 -2.961982e+000
      vertex  -6.040228e+000 7.660444e+000 -2.198464e+000
    endloop
  endfacet
  facet normal -7.852559e-001 6.191713e-001 -1.264151e-007
    outer loop
      vertex  -8.137978e+000 5.000000e+000 -2.961982e+000
      vertex  -8.137979e+000 5.000000e+000 2.961981e+000
      vertex  -6.040228e+000 7.660444e+000 -2.198464e+000
    endloop
  endfacet
  facet normal -7.852560e-001 6.191713e-001 -1.703186e-007
    outer loop
      vertex  -6.040228e+000 7.660444e+000 -2.198464e+000
      vertex  -8.137979e+000 5.000000e+000 2.961981e+000
      vertex  -6.040229e+000 7.660444e+000 2.198463e+000
    endloop
  endfacet
  facet normal -6.015410e-001 6.191713e-001 5.047528e-001
    outer loop
      vertex  -8.137979e+000 5.000000e+000 2.961981e+000
      vertex  -4.330128e+000 5.000000e+000 7.500000e+000
      vertex  -6.040229e+000 7.660444e+000 2.198463e+000
    endloop
  endfacet
  facet normal -6.015410e-001 6.191713e-001 5.047528e-001
    outer loop
      vertex  -6.040229e+000 7.660444e+000 2.198463e+000
      vertex  -4.330128e+000 5.000000e+000 7.500000e+000
      vertex  -3.213939e+000 7.660444e+000 5.566704e+000
    endloop
  endfacet
  facet normal -1.363584e-001 6.191713e-001 7.733262e-001
    outer loop
      vertex  -4.330128e+000 5.000000e+000 7.500000e+000
      vertex  1.503837e+000 5.000000e+000 8.528687e+000
      vertex  -3.213939e+000 7.660444e+000 5.566704e+000
    endloop
  endfacet
  facet normal -1.363584e-001 6.191712e-001 7.733262e-001
    outer loop
      vertex  -3.213939e+000 7.660444e+000 5.566704e+000
      vertex  1.503837e+000 5.000000e+000 8.528687e+000
      vertex  1.116189e+000 7.660444e+000 6.330223e+000
    endloop
  endfacet
  facet normal 3.926281e-001 6.191712e-001 6.800516e-001
    outer loop
      vertex  1.503837e+000 5.000000e+000 8.528687e+000
      vertex  6.634140e+000 5.000000e+000 5.566704e+000
      vertex  1.116189e+000 7.660444e+000 6.330223e+000
    endloop
  endfacet
  facet normal 3.926280e-001 6.191710e-001 6.800518e-001
    outer loop
      vertex  1.116189e+000 7.660444e+000 6.330223e+000
      vertex  6.634140e+000 5.000000e+000 5.566704e+000
      vertex  4.924039e+000 7.660444e+000 4.131760e+000
    endloop
  endfacet
  facet normal 7.378994e-001 6.191711e-001 2.685733e-001
    outer loop
      vertex  6.634140e+000 5.000000e+000 5.566704e+000
      vertex  8.660254e+000 5.000000e+000 0.000000e+000
      vertex  4.924039e+000 7.660444e+000 4.131760e+000
    endloop
  endfacet
  facet normal 7.378994e-001 6.191711e-001 2.685733e-001
    outer loop
      vertex  4.924039e+000 7.660444e+000 4.131760e+000
      vertex  8.660254e+000 5.000000e+000 0.000000e+000
      vertex  6.427876e+000 7.660444e+000 0.000000e+000
    endloop
  endfacet
  facet normal 7.378994e-001 6.191712e-001 -2.685730e-001
    outer loop
      vertex  8.660254e+000 5.000000e+000 0.000000e+000
      vertex  6.634142e+000 5.000000e+000 -5.566704e+000
      vertex  6.427876e+000 7.660444e+000 0.000000e+000
    endloop
  endfacet
  facet normal 7.378992e-001 6.191714e-001 -2.685731e-001
    outer loop
      vertex  6.427876e+000 7.660444e+000 0.000000e+000
      vertex  6.634142e+000 5.000000e+000 -5.566704e+000
      vertex  4.924040e+000 7.660444e+000 -4.131759e+000
    endloop
  endfacet
  facet normal 2.617455e-001 8.520313e-001 -4.533564e-001
    outer loop
      vertex  4.924040e+000 7.660444e+000 -4.131759e+000
      vertex  1.116190e+000 7.660444e+000 -6.330223e+000
      vertex  2.620027e+000 9.396926e+000 -2.198463e+000
    endloop
  endfacet
  facet normal 2.617454e-001 8.520314e-001 -4.533563e-001
    outer loop
      vertex  2.620027e+000 9.396926e+000 -2.198463e+000
      vertex  1.116190e+000 7.660444e+000 -6.330223e+000
      vertex  5.939120e-001 9.396926e+000 -3.368241e+000
    endloop
  endfacet
  facet normal -9.090317e-002 8.520313e-001 -5.155379e-001
    outer loop
      vertex  1.116190e+000 7.660444e+000 -6.330223e+000
      vertex  -3.213938e+000 7.660444e+000 -5.566705e+000
      vertex  5.939120e-001 9.396926e+000 -3.368241e+000
    endloop
  endfacet
  facet normal -9.090311e-002 8.520313e-001 -5.155379e-001
    outer loop
      vertex  5.939120e-001 9.396926e+000 -3.368241e+000
      vertex  -3.213938e+000 7.660444e+000 -5.566705e+000
      vertex  -1.710101e+000 9.396926e+000 -2.961982e+000
    endloop
  endfacet
  facet normal -4.010173e-001 8.520312e-001 -3.364935e-001
    outer loop
      vertex  -3.213938e+000 7.660444e+000 -5.566705e+000
      vertex  -6.040228e+000 7.660444e+000 -2.198464e+000
      vertex  -1.710101e+000 9.396926e+000 -2.961982e+000
    endloop
  endfacet
  facet normal -4.010173e-001 8.520313e-001 -3.364933e-001
    outer loop
      vertex  -1.710101e+000 9.396926e+000 -2.961982e+000
      vertex  -6.040228e+000 7.660444e+000 -2.198464e+000
      vertex  -3.213938e+000 9.396926e+000 -1.169778e+000
    endloop
  endfacet
  facet normal -5.234909e-001 8.520313e-001 -1.135429e-007
    outer loop
      vertex  -6.040228e+000 7.660444e+000 -2.198464e+000
      vertex  -6.040229e+000 7.660444e+000 2.198463e+000
      vertex  -3.213938e+000 9.396926e+000 -1.169778e+000
    endloop
  endfacet
  facet normal -5.234908e-001 8.520314e-001 0.000000e+000
    outer loop
      vertex  -3.213938e+000 9.396926e+000 -1.169778e+000
      vertex  -6.040229e+000 7.660444e+000 2.198463e+000
      vertex  -3.213938e+000 9.396926e+000 1.169778e+000
    endloop
  endfacet
  facet normal -4.010172e-001 8.520313e-001 3.364935e-001
    outer loop
      vertex  -6.040229e+000 7.660444e+000 2.198463e+000
      vertex  -3.213939e+000 7.660444e+000 5.566704e+000
      vertex  -3.213938e+000 9.396926e+000 1.169778e+000
    endloop
  endfacet
  facet normal -4.010172e-001 8.520313e-001 3.364935e-001
    outer loop
      vertex  -3.213938e+000 9.396926e+000 1.169778e+000
      vertex  -3.213939e+000 7.660444e+000 5.566704e+000
      vertex  -1.710101e+000 9.396926e+000 2.961981e+000
    endloop
  endfacet
  facet normal -9.090334e-002 8.520313e-001 5.155379e-001
    outer loop
      vertex  -3.213939e+000 7.660444e+000 5.566704e+000
      vertex  1.116189e+000 7.660444e+000 6.330223e+000
      vertex  -1.710101e+000 9.396926e+000 2.961981e+000
    endloop
  endfacet
  facet normal -9.090331e-002 8.520313e-001 5.155379e-001
    outer loop
      vertex  -1.710101e+000 9.396926e+000 2.961981e+000
      vertex  1.116189e+000 7.660444e+000 6.330223e+000
      vertex  5.939120e-001 9.396926e+000 3.368241e+000
    endloop
  endfacet
  facet normal 2.617454e-001 8.520313e-001 4.533564e-001
    outer loop
      vertex  1.116189e+000 7.660444e+000 6.330223e+000
      vertex  4.924039e+000 7.660444e+000 4.131760e+000
      vertex  5.939120e-001 9.396926e+000 3.368241e+000
    endloop
  endfacet
  facet normal 2.617455e-001 8.520314e-001 4.533562e-001
    outer loop
      vertex  5.939120e-001 9.396926e+000 3.368241e+000
      vertex  4.924039e+000 7.660444e+000 4.131760e+000
      vertex  2.620026e+000 9.396926e+000 2.198463e+000
    endloop
  endfacet
  facet normal 4.919205e-001 8.520313e-001 1.790444e-001
    outer loop
      vertex  4.924039e+000 7.660444e+000 4.131760e+000
      vertex  6.427876e+000 7.660444e+000 0.000000e+000
      vertex  2.620026e+000 9.396926e+000 2.198463e+000
    endloop
  endfacet
  facet normal 4.919207e-001 8.520312e-001 1.790446e-001
    outer loop
      vertex  2.620026e+000 9.396926e+000 2.198463e+000
      vertex  6.427876e+000 7.660444e+000 0.000000e+000
      vertex  3.420202e+000 9.396926e+000 0.000000e+000
    endloop
  endfacet
  facet normal 4.919207e-001 8.520312e-001 -1.790443e-001
    outer loop
      vertex  6.427876e+000 7.660444e+000 0.000000e+000
      vertex  4.924040e+000 7.660444e+000 -4.131759e+000
      vertex  3.420202e+000 9.396926e+000 0.000000e+000
    endloop
  endfacet
  facet normal 4.919205e-001 8.520313e-001 -1.790444e-001
    outer loop
      vertex  3.420202e+000 9.396926e+000 0.000000e+000
      vertex  4.924040e+000 7.660444e+000 -4.131759e+000
      vertex  2.620027e+000 9.396926e+000 -2.198463e+000
    endloop
  endfacet
  facet normal 9.221231e-002 -9.828467e-001 -1.597164e-001
    outer loop
      vertex  5.939120e-001 -9.396926e+000 -3.368241e+000
      vertex  2.620027e+000 -9.396926e+000 -2.198463e+000
      vertex  0.000000e+000 -1.000000e+001 0.000000e+000
    endloop
  endfacet
  facet normal -3.202495e-002 -9.828467e-001 -1.816228e-001
    outer loop
      vertex  -1.710101e+000 -9.396926e+000 -2.961982e+000
      vertex  5.939120e-001 -9.396926e+000 -3.368241e+000
      vertex  0.000000e+000 -1.000000e+001 0.000000e+000
    endloop
  endfacet
  facet normal -1.412775e-001 -9.828467e-001 -1.185458e-001
    outer loop
      vertex  -3.213938e+000 -9.396926e+000 -1.169778e+000
      vertex  -1.710101e+000 -9.396926e+000 -2.961982e+000
      vertex  0.000000e+000 -1.000000e+001 0.000000e+000
    endloop
  endfacet
  facet normal -1.844246e-001 -9.828467e-001 -0.000000e+000
    outer loop
      vertex  -3.213938e+000 -9.396926e+000 1.169778e+000
      vertex  -3.213938e+000 -9.396926e+000 -1.169778e+000
      vertex  0.000000e+000 -1.000000e+001 0.000000e+000
    endloop
  endfacet
  facet normal -1.412775e-001 -9.828467e-001 1.185459e-001
    outer loop
      vertex  -1.710101e+000 -9.396926e+000 2.961981e+000
      vertex  -3.213938e+000 -9.396926e+000 1.169778e+000
      vertex  0.000000e+000 -1.000000e+001 0.000000e+000
    endloop
  endfacet
  facet normal -3.202503e-002 -9.828467e-001 1.816228e-001
    outer loop
      vertex  5.939120e-001 -9.396926e+000 3.368241e+000
      vertex  -1.710101e+000 -9.396926e+000 2.961981e+000
      vertex  0.000000e+000 -1.000000e+001 0.000000e+000
    endloop
  endfacet
  facet normal 9.221235e-002 -9.828467e-001 1.597164e-001
    outer loop
      vertex  2.620026e+000 -9.396926e+000 2.198463e+000
      vertex  5.939120e-001 -9.396926e+000 3.368241e+000
      vertex  0.000000e+000 -1.000000e+001 0.000000e+000
    endloop
  endfacet
  facet normal 1.733024e-001 -9.828467e-001 6.307700e-002
    outer loop
      vertex  3.420202e+000 -9.396926e+000 0.000000e+000
      vertex  2.620026e+000 -9.396926e+000 2.198463e+000
      vertex  0.000000e+000 -1.000000e+001 0.000000e+000
    endloop
  endfacet
  facet normal 1.733024e-001 -9.828467e-001 -6.307692e-002
    outer loop
      vertex  2.620027e+000 -9.396926e+000 -2.198463e+000
      vertex  3.420202e+000 -9.396926e+000 0.000000e+000
      vertex  0.000000e+000 -1.000000e+001 0.000000e+000
    endloop
  endfacet
  facet normal 9.221231e-002 9.828467e-001 -1.597164e-001
    outer loop
      vertex  2.620027e+000 9.396926e+000 -2.198463e+000
      vertex  5.939120e-001 9.396926e+000 -3.368241e+000
      vertex  0.000000e+000 1.000000e+001 0.000000e+000
    endloop
  endfacet
  facet normal -3.202495e-002 9.828467e-001 -1.816228e-001
    outer loop
      vertex  5.939120e-001 9.396926e+000 -3.368241e+000
      vertex  -1.710101e+000 9.396926e+000 -2.961982e+000
      vertex  0.000000e+000 1.000000e+001 0.000000e+000
    endloop
  endfacet
  facet normal -1.412775e-001 9.828467e-001 -1.185458e-001
    outer loop
      vertex  -1.710101e+000 9.396926e+000 -2.961982e+000
      vertex  -3.213938e+000 9.396926e+000 -1.169778e+000
      vertex  0.000000e+000 1.000000e+001 0.000000e+000
    endloop
  endfacet
  facet normal -1.844246e-001 9.828467e-001 0.000000e+000
    outer loop
      vertex  -3.213938e+000 9.396926e+000 -1.169778e+000
      vertex  -3.213938e+000 9.396926e+000 1.169778e+000
      vertex  0.000000e+000 1.000000e+001 0.000000e+000
    endloop
  endfacet
  facet normal -1.412775e-001 9.828467e-001 1.185459e-001
    outer loop
      vertex  -3.213938e+000 9.396926e+000 1.169778e+000
      vertex  -1.710101e+000 9.396926e+000 2.961981e+000
      vertex  0.000000e+000 1.000000e+001 0.000000e+000
    endloop
  endfacet
  facet normal -3.202503e-002 9.828467e-001 1.816228e-001
    outer loop
      vertex  -1.710101e+000 9.396926e+000 2.961981e+000
      vertex  5.939120e-001 9.396926e+000 3.368241e+000
      vertex  0.000000e+000 1.000000e+001 0.000000e+000
    endloop
  endfacet
  facet normal 9.221235e-002 9.828467e-001 1.597164e-001
    outer loop
      vertex  5.939120e-001 9.396926e+000 3.368241e+000
      vertex  2.620026e+000 9.396926e+000 2.198463e+000
      vertex  0.000000e+000 1.000000e+001 0.000000e+000
    endloop
  endfacet
  facet normal 1.733024e-001 9.828467e-001 6.307700e-002
    outer loop
      vertex  2.620026e+000 9.396926e+000 2.198463e+000
      vertex  3.420202e+000 9.396926e+000 0.000000e+000
      vertex  0.000000e+000 1.000000e+001 0.000000e+000
    endloop
  endfacet
  facet normal 1.733024e-001 9.828467e-001 -6.307692e-002
    outer loop
      vertex  3.420202e+000 9.396926e+000 0.000000e+000
      vertex  2.620027e+000 9.396926e+000 -2.198463e+000
      vertex  0.000000e+000 1.000000e+001 0.000000e+000
    endloop
  endfacet
endsolid vcg
